<?xml version="1.0" encoding="utf-8"?>
<!-- Generator: Adobe Illustrator 24.0.2, SVG Export Plug-In . SVG Version: 6.00 Build 0)  -->
<svg version="1.1" id="Calque_1" xmlns="http://www.w3.org/2000/svg" xmlns:xlink="http://www.w3.org/1999/xlink" x="0px" y="0px"
	 viewBox="0 0 841.9 1190.6" style="enable-background:new 0 0 841.9 1190.6;" xml:space="preserve">
<style type="text/css">
	.st0{display:none;fill:#02b5ce;stroke:#000000;stroke-miterlimit:10;}
	.st1{fill:#02b5ce;stroke:#000000;stroke-miterlimit:10;}
	.st2{fill:none;stroke:#000000;stroke-miterlimit:10;}
</style>
<path id="v1" class="st0" d="M217,478h326c6.6,0,12-5.4,12-12V232c0-6.6-5.4-12-12-12H217c-6.6,0-12,5.4-12,12l0.5,216.5l-56,42
	l57-12L217,478z"/>
<path id="V2" class="st1" d="M93.8,560.9l-1-426.5c0,0-3.9-23.6,23.6-23.6s642.2,0,642.2,0s23.6-4.8,23.6,36.5s0,448.1,0,448.1
	s-2,23.6-23.6,23.6s-516.1,0-516.1,0l-70.9,166.6l-19.7-193.1c0,0-8.9-31.4-33.5-31.5C93.8,560.9,93.8,560.9,93.8,560.9z"/>
<line class="st2" x1="236.5" y1="300" x2="681" y2="300"/>
<line class="st2" x1="236.5" y1="354" x2="681" y2="354"/>
<line class="st2" x1="236.5" y1="407" x2="681" y2="407"/>
</svg>
