<?xml version="1.0" encoding="utf-8"?>
<!-- Generator: Adobe Illustrator 24.0.2, SVG Export Plug-In . SVG Version: 6.00 Build 0)  -->
<svg version="1.1" id="Calque_1" xmlns="http://www.w3.org/2000/svg" xmlns:xlink="http://www.w3.org/1999/xlink" x="0px" y="0px"
	 viewBox="0 0 841.9 1190.6" style="enable-background:new 0 0 841.9 1190.6;" xml:space="preserve">
<style type="text/css">
	.st0{display:none;fill:#02b5ce;stroke:#000000;stroke-miterlimit:10;}
	.st1{fill:#02b5ce;stroke:#000000;stroke-miterlimit:10;}
	.st2{fill:none;stroke:#000000;stroke-miterlimit:10;}
</style>
<path class="st0" d="M217,478h326c6.6,0,12-5.4,12-12V232c0-6.6-5.4-12-12-12H217c-6.6,0-12,5.4-12,12l0.5,216.5l-56,42l57-12
	L217,478z"/>
<path class="st1" d="M205,448.6l-0.5-216.5c0,0-2-12,12-12s326,0,326,0s12-2.4,12,18.6s0,227.4,0,227.4s-1,12-12,12s-262,0-262,0
	l-36,84.6l-10-98c0,0-4.5-15.9-17-16S205,448.6,205,448.6z"/>
<line class="st2" x1="262.5" y1="299.5" x2="495.5" y2="299.5"/>
<line class="st2" x1="263" y1="353.5" x2="496" y2="353.5"/>
<line class="st2" x1="263" y1="406.5" x2="496" y2="406.5"/>
</svg>
