<svg version="1.1" id="Calque_1" xmlns="http://www.w3.org/2000/svg" xmlns:xlink="http://www.w3.org/1999/xlink" x="0px" y="0px"
     viewBox="0 0 841.9 1190.6" style="enable-background:new 0 0 841.9 1190.6;" xml:space="preserve">
<style type="text/css">
    .st4{fill:#02b5ce;stroke:#000000;stroke-width:3;stroke-miterlimit:10;}
    .st4:hover{
        fill:#5bcedb;
    }
    .st5{fill:none;stroke:#000000;stroke-width:7;stroke-miterlimit:10;}
    .st0{fill:#fff;stroke:#000000;stroke-width:3;stroke-miterlimit:10;}
</style>
<g>
    <path class="st4" d="M373.5,455.1l200-1c0,0,56.9,4.7,56.9-34s0-173,0-173s2.2-36-33-36c-35.2,0-405.2-0.7-405.2-0.7
        s-35.7-3.9-35.8,36.1S156,419.1,156,419.1s-4.8,35.7,30.2,36c3.1,0,12.3,7.2,13.6,8.7c32.8,38.6,70.2,192.3,70.2,192.3L373.5,455.1
        z"/>
    <polyline class="st0" points="186.2,455.1 206.5,455.1 248.2,577.5     "/>
</g>
<line id="LFinal1" class="st5" x1="240.5" y1="264.7" x2="545.7" y2="264.7"/>
<line id="LFinal2" class="st5" x1="240.5" y1="324.8" x2="545.7" y2="324.8"/>
<line id="LFinal3" class="st5" x1="240.5" y1="384.9" x2="545.7" y2="384.9"/>
</svg>